<svg height="512pt" viewBox="-1 0 512 512.00101" width="512pt" xmlns="http://www.w3.org/2000/svg"><path d="m105.992188 7.601562h396.996093v294.960938h-396.996093zm0 0" fill="#ccc"/><path d="m333.09375 108.015625c-5.722656 0-10.359375 4.636719-10.359375 10.359375v347.179688h20.71875v-347.179688c0-5.722656-4.636719-10.359375-10.359375-10.359375zm0 0" fill="#ffc627"/><path d="m327.878906 427.339844-33.59375 33.589844 40.304688 40.304687 33.59375-33.589844c3.710937-3.710937 3.703125-9.722656 0-13.425781l-26.878906-26.878906c-3.703126-3.703125-9.714844-3.710938-13.425782 0zm0 0" fill="#f4af9d"/><path d="m327.878906 427.339844-33.59375 33.589844 24.0625 24.0625 33.589844-33.589844c3.710938-3.710938 3.710938-9.714844 0-13.429688l-10.632812-10.632812c-3.703126-3.703125-9.714844-3.710938-13.425782 0zm0 0" fill="#f9c2af"/><path d="m334.597656 501.226562-2.898437 2.898438h-80.601563l43.1875-43.195312 24.191406 24.175781zm0 0" fill="#515f75"/><path d="m334.597656 501.226562-2.898437 2.898438h-32.246094l19.023437-19.019531zm0 0" fill="#3b485b"/><path d="m164.316406 409.238281h44.859375c23 0 41.640625 18.640625 41.640625 41.640625v53.523438h-234.699218v-53.523438c0-22.996094 18.640624-41.640625 41.640624-41.640625h44.863282" fill="#515f75"/><path d="m82.15625 409.238281 27.113281 95.160157h48.402344l27.113281-95.160157" fill="#f2f2f2"/><path d="m164.320312 355.773438v53.46875l-30.847656 17.378906-9.53125-5.367188-21.316406-12.011718v-53.5l21.316406.007812zm0 0" fill="#f9c2af"/><path d="m109.4375 504.398438 24.511719-30.28125 23.722656 30.28125" fill="#f74866"/><path d="m123.941406 355.75-21.316406-.007812v53.5l21.316406 12.011718v-24.738281c3.148438.308594 6.339844.488281 9.570313.488281 10.769531 0 21.132812-1.757812 30.804687-5.003906v-36.222656zm0 0" fill="#ea9e8f"/><path d="m36.683594 299.484375c-16.0625 0-29.082032-11.65625-29.082032-26.035156 0-14.378907 13.019532-26.035157 29.082032-26.035157h193.664062c16.0625 0 29.082032 11.65625 29.082032 26.035157 0 14.378906-13.019532 26.035156-29.082032 26.035156" fill="#ea9e8f"/><path d="m230.347656 190.4375v96.832031c0 53.480469-43.355468 96.835938-96.832031 96.835938-53.480469 0-96.832031-43.355469-96.832031-96.835938v-96.832031" fill="#f9c2af"/><path d="m132.828125 384.097656c-26.46875-.175781-50.40625-10.980468-67.785156-28.351562-17.523438-17.53125-28.359375-41.734375-28.359375-68.476563v-96.832031h43.59375v96.832031c0 26.742188 5.957031 50.945313 15.589844 68.476563 9.484374 17.25 22.53125 28.019531 36.960937 28.351562zm0 0" fill="#ea9e8f"/><path d="m206.34375 216.75c-35.085938 12.640625-69.054688 8.386719-93.078125 1.6875 0 0-.007813 0-.007813-.007812-20.921874-5.828126-34.296874-13.515626-34.296874-13.515626s-8.832032 42.496094-42.28125 42.496094c0 0-22.25-39.359375-21.550782-75.777344.359375-18.882812 15.933594-33.007812 33.632813-33.007812 3.304687 0 6.6875.488281 10.050781 1.539062 9.480469-25.453124 34.523438-41.5625 61.636719-39.914062 4.222656.257812 8.46875.59375 12.734375.984375.816406.066406 1.640625.140625 2.457031.21875.082031.007813.167969.015625.253906.023437 44.253907 4.15625 89.082031 12.25 115.421875-16.890624 0 0 43.53125 100.28125-44.972656 132.164062zm0 0" fill="#515f75"/><path d="m120.449219 100.25c4.222656.257812 8.472656.59375 12.734375.984375-39.046875-1.648437-70.070313 84.347656-19.925782 117.195313-20.921874-5.828126-34.296874-13.519532-34.296874-13.519532s-8.832032 42.5-42.277344 42.5c0 0-22.253906-39.363281-21.554688-75.777344.363282-18.886718 15.933594-33.007812 33.632813-33.007812 3.304687 0 6.6875.488281 10.050781 1.539062 9.480469-25.457031 34.523438-41.5625 61.636719-39.914062zm0 0" fill="#3b485b"/><path d="m112.246094 447.847656 20.582031 26.269532 21.265625-26.269532-20.621094-21.226562z" fill="#f74866"/><path d="m135.910156 101.484375c-.089844-.015625-.175781-.023437-.269531-.03125.085937.007813.167969.015625.253906.023437zm0 0" fill="#f4af9d"/><path d="m502.988281 0h-53.589843c-4.199219 0-7.601563 3.402344-7.601563 7.601562 0 4.195313 3.402344 7.597657 7.601563 7.597657h45.992187v279.757812h-144.335937v-176.585937c0-9.90625-8.058594-17.960938-17.960938-17.960938-9.90625 0-17.964844 8.054688-17.964844 17.960938v176.585937h-56.605468c5.308593-5.835937 8.507812-13.335937 8.507812-21.507812 0-16.160157-12.492188-29.6875-29.085938-32.90625v-32.304688c10.738282-8.414062 18.835938-18.847656 24.183594-31.226562 18.535156-42.917969-2.917968-93.328125-3.84375-95.453125-1.027344-2.367188-3.191406-4.054688-5.738281-4.472656-2.550781-.417969-5.136719.488281-6.867187 2.402343-21.15625 23.394531-57.453126 19.675781-95.878907 15.738281-9.476562-.96875-19.277343-1.972656-28.894531-2.558593-2.460938-.152344-4.898438-.164063-7.316406-.0625v-77.40625h305.402344c4.199218 0 7.601562-3.402344 7.601562-7.597657 0-4.199218-3.402344-7.601562-7.601562-7.601562h-313c-4.199219 0-7.601563 3.402344-7.601563 7.601562v87.320313c-19.101563 5.125-35.25 18.214844-44.085937 36.472656-10.417969-1.433593-20.941407 1.15625-29.679688 7.460938-10.617188 7.664062-16.847656 19.554687-17.09375 32.628906-.523438 27.335937 10.839844 55.636719 17.636719 70.035156-14.601563 4.4375-25.167969 17.070313-25.167969 31.929688 0 16.730469 13.398438 30.648437 30.875 33.207031 3.832031 20.511719 13.722656 39.386719 28.796875 54.460938 10.25 10.253906 22.265625 18.109374 35.351563 23.289062v17.234375h-37.265626c-27.148437 0-49.238281 22.089844-49.238281 49.238281v53.523438c0 4.195312 3.402344 7.597656 7.597657 7.597656l315.582031-.273438c2.015625 0 3.949219-.800781 5.375-2.226562l2.898437-2.898438c.003906-.003906.007813-.007812.011719-.015624l33.570313-33.570313c6.664062-6.664063 6.664062-17.507813 0-24.171875l-22.5-22.503906v-116.183594h151.933593c4.199219 0 7.601563-3.402344 7.601563-7.597656v-294.957032c0-4.199218-3.402344-7.601562-7.601563-7.601562zm-180.257812 366.398438c4.199219 0 7.601562-3.402344 7.601562-7.601563v-240.425781c0-1.523438 1.238281-2.761719 2.761719-2.761719 1.519531 0 2.761719 1.238281 2.761719 2.761719v298.65625c-1.851563-.136719-3.714844.03125-5.523438.496094v-28.324219c0-4.199219-3.402343-7.601563-7.601562-7.601563-4.195313 0-7.597657 3.402344-7.597657 7.601563v40.140625l-26.1875 26.183594c-.011718.011718-.019531.019531-.03125.03125l-30.496093 30.496093v-35.171875c0-27.152344-22.089844-49.242187-49.242188-49.242187h-37.257812v-17.25c31.738281-12.59375 55.882812-40.320313 63.492187-74.230469h79.71875v48.640625c.003906 4.199219 3.40625 7.601563 7.601563 7.601563zm-232.085938 111.578124c-.730469-2.636718-2.824219-4.679687-5.480469-5.34375l-20.921874-5.230468 1.992187-50.5625h10.1875l22.78125 79.960937h-21.929687l11.421874-11.421875c1.9375-1.9375 2.679688-4.761718 1.949219-7.402344zm9.980469-61.136718 20.390625 11.488281-19.859375 19.859375-8.929688-31.347656zm65.695312 0h8.398438l-8.933594 31.347656-19.859375-19.859375zm-32.847656 20.53125 10.675782 10.679687-11.226563 13.867188-10.539063-13.460938zm-21.917968 21.914062 12.109374 15.460938-11.050781 13.652344-6.691406-23.480469zm43.402343-.429687 6.0625 6.0625-6.566406 23.046875-11.339844-14.476563zm-21.105469 27.460937 8.214844 10.484375h-16.699218zm56.671876-69.476562h10.175781l1.996093 50.5625-20.921874 5.230468c-2.660157.664063-4.753907 2.707032-5.484376 5.34375-.730468 2.640626.015626 5.46875 1.953126 7.402344l11.421874 11.421875h-21.921874zm7.957031 67.28125 13.894531-3.472656c3.492188-.871094 5.894531-4.074219 5.75-7.671876l-2.1875-55.460937c15.542969 3.144531 27.277344 16.910156 27.277344 33.363281v45.921875h-32.058594zm53.347656-210.671875c0 7.886719-5.8125 14.613281-13.945313 17.238281.035157-1.136719.0625-2.273438.0625-3.417969v-31.042969c8.101563 2.640626 13.882813 9.355469 13.882813 17.222657zm-229.101563-101.671875c.160157-8.25 4.09375-15.757813 10.792969-20.59375 4.535157-3.269532 9.828125-4.960938 15.21875-4.960938 2.609375 0 5.242188.394532 7.820313 1.199219 3.855468 1.195313 7.972656-.824219 9.378906-4.605469 8.332031-22.382812 30.0625-36.4375 54.046875-34.976562 9.300781.566406 18.941406 1.554687 28.265625 2.507812 36.171875 3.707032 73.441406 7.527344 99.742188-12.425781 4.851562 15.734375 11.570312 46.699219.179687 73.066406-7.675781 17.773438-22.613281 30.761719-44.402344 38.613281-61.414062 22.125-120.445312-10.949218-121.027343-11.28125-2.105469-1.210937-4.667969-1.332031-6.886719-.339843-2.21875.988281-3.832031 2.988281-4.335938 5.367187-.074219.34375-7.164062 32.449219-30.417969 36.125-5.410156-10.785156-18.894531-40.476562-18.375-67.695312zm-7.527343 101.671875c0-7.867188 5.785156-14.582031 13.882812-17.222657v31.042969c0 1.140625.027344 2.28125.0625 3.417969-8.132812-2.628906-13.945312-9.351562-13.945312-17.238281zm29.082031 13.816406v-32.917969c13.164062-2.273437 24.332031-10.53125 32.59375-24.269531 3.058594-5.09375 5.25-10.175781 6.75-14.3125 19.703125 9.078125 70.828125 27.757813 125.296875 8.132813 4.894531-1.761719 9.503906-3.757813 13.824219-5.980469v69.347656c0 49.207031-40.03125 89.242187-89.234375 89.242187-23.832031 0-46.238281-9.28125-63.09375-26.136718-16.851563-16.851563-26.136719-39.265625-26.136719-63.105469zm89.234375 104.441406c7.972656 0 15.738281-.902343 23.203125-2.601562v15.695312l-23.246094 13.097657-23.25-13.097657v-15.6875c7.554688 1.710938 15.355469 2.59375 23.292969 2.59375zm-109.796875 59.171875c0-16.457031 11.738281-30.21875 27.277344-33.363281l-2.1875 55.460937c-.140625 3.59375 2.257812 6.796876 5.75 7.671876l13.898437 3.472656-12.679687 12.679687h-32.058594zm270.570312 20.796875 24.851563 24.851563h-49.703125zm69.074219-10.746093c0 .359374-.097656.878906-.554687 1.339843l-28.210938 28.210938-29.152344-29.144531-.40625-.40625 28.214844-28.21875c.460938-.457032.980469-.550782 1.339844-.550782s.878906.09375 1.339844.550782l26.875 26.878906c.457031.460937.554687.980468.554687 1.339844zm0 0"/><path d="m167.960938 287.394531c4.195312 0 7.597656-3.402343 7.597656-7.601562v-13.457031c0-4.195313-3.402344-7.597657-7.597656-7.597657-4.199219 0-7.601563 3.402344-7.601563 7.597657v13.457031c0 4.199219 3.402344 7.601562 7.601563 7.601562zm0 0"/><path d="m106.667969 279.792969v-13.457031c0-4.195313-3.402344-7.597657-7.601563-7.597657-4.195312 0-7.597656 3.402344-7.597656 7.597657v13.457031c0 4.199219 3.402344 7.601562 7.597656 7.601562 4.199219 0 7.601563-3.402343 7.601563-7.601562zm0 0"/><path d="m361.597656 231.632812v36.625c0 4.199219 3.402344 7.601563 7.597656 7.601563 4.199219 0 7.601563-3.402344 7.601563-7.601563v-36.625c0-4.199218-3.402344-7.601562-7.601563-7.601562-4.195312 0-7.597656 3.402344-7.597656 7.601562zm0 0"/><path d="m292.171875 175.070312v93.1875c0 4.199219 3.402344 7.601563 7.601563 7.601563 4.195312 0 7.597656-3.402344 7.597656-7.601563v-93.1875c0-4.195312-3.402344-7.597656-7.597656-7.597656-4.199219 0-7.601563 3.402344-7.601563 7.597656zm0 0"/><path d="m392.679688 101.097656v167.160156c0 4.199219 3.402343 7.601563 7.601562 7.601563 4.195312 0 7.597656-3.402344 7.597656-7.601563v-167.160156c0-4.195312-3.402344-7.597656-7.597656-7.597656-4.199219 0-7.601562 3.402344-7.601562 7.597656zm0 0"/><path d="m423.765625 152.777344v115.480468c0 4.199219 3.402344 7.601563 7.597656 7.601563 4.199219 0 7.601563-3.402344 7.601563-7.601563v-115.480468c0-4.195313-3.402344-7.597656-7.601563-7.597656-4.195312 0-7.597656 3.402343-7.597656 7.597656zm0 0"/><path d="m470.046875 268.257812v-208.375c0-4.195312-3.402344-7.597656-7.601563-7.597656-4.195312 0-7.597656 3.402344-7.597656 7.597656v208.375c0 4.199219 3.402344 7.601563 7.597656 7.601563 4.199219 0 7.601563-3.402344 7.601563-7.601563zm0 0"/><path d="m162.644531 326.800781c2.96875-2.964843 2.96875-7.777343 0-10.746093s-7.78125-2.96875-10.746093 0c-10.136719 10.136718-26.628907 10.136718-36.765626 0-2.96875-2.96875-7.78125-2.96875-10.75 0-2.964843 2.96875-2.964843 7.78125 0 10.746093 8.035157 8.035157 18.582032 12.050781 29.132813 12.050781 10.546875 0 21.097656-4.015624 29.128906-12.050781zm0 0"/><path d="m210.648438 39.285156c0-4.195312-3.402344-7.597656-7.601563-7.597656h-62.824219c-4.199218 0-7.601562 3.402344-7.601562 7.597656 0 4.199219 3.402344 7.601563 7.601562 7.601563h62.824219c4.199219 0 7.601563-3.402344 7.601563-7.601563zm0 0"/><path d="m140.222656 58.058594c-4.199218 0-7.601562 3.402344-7.601562 7.597656 0 4.199219 3.402344 7.601562 7.601562 7.601562h36.476563c4.199219 0 7.601562-3.402343 7.601562-7.601562 0-4.195312-3.402343-7.597656-7.601562-7.597656zm0 0"/></svg>