<svg height="511pt" viewBox="0 0 511 511.99818" width="511pt" xmlns="http://www.w3.org/2000/svg"><path d="m193.550781 391.785156h53.089844c27.214844 0 49.273437 22.0625 49.273437 49.277344v63.335938h-277.734374v-63.335938c0-27.214844 22.058593-49.277344 49.277343-49.277344h53.085938" fill="#515f75"/><path d="m96.328125 391.785156 32.082031 112.613282h57.28125l32.082032-112.613282" fill="#f2f2f2"/><path d="m193.554688 328.519531v63.269531l-36.503907 20.566407-11.277343-6.347657-25.226563-14.21875v-63.308593l25.226563.007812zm0 0" fill="#f9c2af"/><path d="m128.609375 504.398438 29.007813-35.835938 28.074218 35.835938" fill="#f74866"/><path d="m145.773438 328.488281-25.226563-.007812v63.308593l25.226563 14.214844v-29.273437c3.726562.367187 7.5.574219 11.328124.574219 12.742188 0 25.003907-2.078126 36.453126-5.921876v-42.863281zm0 0" fill="#ea9e8f"/><path d="m42.511719 261.902344c-19.003907 0-34.414063-13.792969-34.414063-30.808594s15.410156-30.808594 34.414063-30.808594h229.179687c19.007813 0 34.414063 13.792969 34.414063 30.808594s-15.40625 30.808594-34.414063 30.808594" fill="#ea9e8f"/><path d="m271.691406 132.863281v114.589844c0 63.285156-51.304687 114.589844-114.589844 114.589844-63.285156 0-114.589843-51.304688-114.589843-114.589844v-114.589844" fill="#f9c2af"/><path d="m156.289062 362.035156c-31.324218-.207031-59.648437-12.992187-80.214843-33.550781-20.738281-20.746094-33.5625-49.382813-33.5625-81.03125v-114.59375h51.589843v114.59375c0 31.644531 7.046876 60.285156 18.449219 81.03125 11.226563 20.410156 26.660157 33.15625 43.738281 33.550781zm0 0" fill="#ea9e8f"/><path d="m243.289062 163.996094c-41.519531 14.960937-81.71875 9.925781-110.148437 2.003906 0 0-.011719 0-.011719-.011719-24.757812-6.898437-40.585937-15.996093-40.585937-15.996093s-10.453125 50.289062-50.03125 50.289062c0 0-26.332031-46.578125-25.503907-89.671875.425782-22.347656 18.851563-39.0625 39.796876-39.0625 3.914062 0 7.914062.578125 11.898437 1.824219 11.21875-30.125 40.851563-49.1875 72.9375-47.238282 4.996094.3125 10.023437.707032 15.070313 1.167969.964843.078125 1.941406.167969 2.90625.257813.101562.007812.199218.019531.300781.027344 52.371093 4.917968 105.421875 14.496093 136.589843-19.988282 0 0 51.515626 118.671875-53.21875 156.398438zm0 0" fill="#515f75"/><path d="m141.640625 26.132812c5 .3125 10.027344.707032 15.070313 1.167969-46.207032-1.953125-82.921876 99.8125-23.582032 138.6875-24.757812-6.898437-40.585937-15.996093-40.585937-15.996093s-10.453125 50.289062-50.03125 50.289062c0 0-26.332031-46.578125-25.503907-89.671875.425782-22.347656 18.851563-39.0625 39.796876-39.0625 3.914062 0 7.914062.578125 11.898437 1.824219 11.21875-30.125 40.851563-49.1875 72.9375-47.238282zm0 0" fill="#3b485b"/><path d="m131.933594 437.472656 24.355468 31.089844 25.167969-31.089844-24.40625-25.117187z" fill="#f74866"/><path d="m159.9375 27.597656c-.109375-.019531-.207031-.027344-.316406-.039062.097656.011718.195312.019531.296875.027344zm0 0" fill="#f4af9d"/><path d="m153.453125 313.894531h7.296875c19.921875 0 36.070312-16.148437 36.070312-36.070312v-5.636719h-79.4375v5.636719c0 19.921875 16.148438 36.070312 36.070313 36.070312zm0 0" fill="#f74866"/><path d="m371.558594 34.457031c-72.734375 0-131.703125 50.515625-131.703125 112.832031 0 24.925782 9.441406 47.960938 25.421875 66.632813-3.3125 17.71875-10.742188 42.730469-27.289063 59.28125 0 0 42.351563-1.21875 74.476563-25.0625 17.773437 7.660156 37.84375 11.980469 59.097656 11.980469 72.738281 0 131.703125-50.519532 131.703125-112.832032 0-62.316406-58.96875-112.832031-131.707031-112.832031zm0 0" fill="#79bbe8"/><path d="m488.601562 81.917969c-2.515624-3.359375-7.277343-4.046875-10.640624-1.53125-3.359376 2.515625-4.046876 7.277343-1.53125 10.640625 12.582031 16.8125 19.234374 36.265625 19.234374 56.261718 0 58.023438-55.671874 105.230469-124.105468 105.230469-19.726563 0-38.597656-3.820312-56.089844-11.355469-2.484375-1.074218-5.359375-.742187-7.535156.875-17.375 12.894532-38.265625 18.761719-52.714844 21.414063 9.789062-15.761719 14.886719-33.996094 17.527344-48.136719.421875-2.257812-.203125-4.589844-1.695313-6.335937-15.4375-18.039063-23.597656-39.371094-23.597656-61.691407 0-58.027343 55.675781-105.234374 124.105469-105.234374 33.367187 0 64.683594 11.085937 88.183594 31.21875 3.1875 2.730468 7.984374 2.359374 10.714843-.824219 2.730469-3.191407 2.363281-7.988281-.824219-10.71875-26.253906-22.488281-61.082031-34.875-98.074218-34.875-20.769532 0-40.488282 3.957031-58.210938 11.035156-3.847656-19.277344-9.59375-32.667969-9.875-33.316406-1.027344-2.367188-3.1875-4.054688-5.738281-4.472657-2.554687-.417968-5.140625.484376-6.871094 2.402344-25.496093 28.207032-68.78125 23.773438-114.613281 19.078125-11.203125-1.148437-22.792969-2.335937-34.148438-3.027343-33.480468-2.03125-63.980468 16.222656-77.917968 45.976562-2.445313-.386719-4.914063-.582031-7.390625-.582031-25.636719 0-46.890625 20.863281-47.378907 46.507812-.636718 33.058594 13.5625 67.347657 21.441407 83.746094-17.511719 4.632813-30.355469 19.410156-30.355469 36.890625 0 19.417969 15.84375 35.503906 36.328125 38.046875 4.34375 24.390625 15.996094 46.839844 33.875 64.71875 12.226563 12.226563 26.589844 21.542969 42.242187 27.597656v22.730469h-45.488281c-31.363281 0-56.878906 25.511719-56.878906 56.875v3.546875c0 4.199219 3.402344 7.601563 7.601563 7.601563 4.195312 0 7.601562-3.402344 7.601562-7.601563v-3.546875c0-20.753906 15.25-38.011719 35.132812-41.160156l-2.65625 67.363281c-.140624 3.597656 2.257813 6.800781 5.75 7.671875l18.832032 4.707031-17.152344 17.152344h-39.910156v-21.785156c0-4.195313-3.402344-7.597657-7.597656-7.597657-4.199219 0-7.601563 3.402344-7.601563 7.597657v29.386719c0 4.195312 3.402344 7.601562 7.601563 7.601562h277.734374c4.199219 0 7.601563-3.40625 7.601563-7.601562v-63.335938c0-31.359375-25.515625-56.875-56.875-56.875h-45.484375v-22.71875c37.371094-14.410156 66.222656-46.710938 75.226562-87.445312 11.828126-3.558594 24.933594-8.980469 37.058594-17.25 18.265625 7.265624 37.792969 10.945312 58.117188 10.945312 76.816406 0 139.304687-54.023438 139.304687-120.429688 0-23.304687-7.699219-45.910156-22.261719-65.371093zm-463.992187 28.828125c.332031-17.421875 14.769531-31.597656 32.183594-31.597656 3.261719 0 6.507812.496093 9.652343 1.480468 3.851563 1.199219 7.976563-.820312 9.386719-4.605468 10.070313-27.066407 36.339844-44.074219 65.34375-42.292969 11.042969.667969 22.472657 1.839843 33.523438 2.972656 43.234375 4.429687 87.808593 8.996094 118.59375-15.660156 1.90625 5.9375 4.15625 14.058593 5.828125 23.414062-40.066406 21.171875-66.867188 59.34375-66.867188 102.832031 0 4.070313.253906 8.109376.714844 12.109376-70.4375 21.136718-135.972656-15.617188-136.640625-15.996094-2.109375-1.214844-4.675781-1.34375-6.898437-.347656-2.222657 1-3.832032 3.003906-4.328126 5.386718-.023437.113282-2.429687 11.445313-9.246093 22.78125-7.613281 12.660156-17.320313 19.773438-28.90625 21.199219-6.121094-12.027344-22.984375-48.285156-22.339844-81.675781zm-8.910156 120.347656c0-10.511719 8.121093-19.410156 19.214843-22.253906v38.609375c0 1.988281.050782 3.964843.144532 5.933593-11.167969-2.800781-19.359375-11.730468-19.359375-22.289062zm179.855469 168.292969h12.152343l-11.726562 41.152343-26.476563-26.476562zm42.390624 0 2.460938 62.304687-25.859375 6.464844c-2.65625.664062-4.75 2.707031-5.480469 5.34375-.734375 2.640625.011719 5.46875 1.949219 7.402344l15.894531 15.894531h-31.152344l27.753907-97.410156zm-80.894531 23.71875 14.511719 14.511719-15.175781 18.746093-14.316407-18.277343zm34.164063 34.164062-8.742188 30.695313-15.792968-20.160156 15.691406-19.382813zm-59.972656-8.355469 15.984374 20.402344-15.464843 19.109375-8.875-31.15625zm26.277343 31.847657 12.5625 16.035156h-25.542969zm-39.398437-40.222657-11.726563-41.152343h12.152344l26.050781 14.675781zm-13.09375 32.960938c-.730469-2.636719-2.824219-4.679688-5.480469-5.34375l-25.859375-6.464844 2.457031-62.304687h14.445313l27.753906 97.410156h-31.160156l15.894531-15.894531c1.9375-1.933594 2.683594-4.761719 1.949219-7.402344zm183.289062-32.4375v55.734375h-39.910156l-17.152344-17.148437 18.832032-4.710938c3.492187-.871094 5.894531-4.074219 5.75-7.671875l-2.65625-67.363281c19.882812 3.148437 35.136718 20.40625 35.136718 41.160156zm-102.363281-53.710938-28.902344 16.28125-28.902343-16.28125v-21.144531c9.367187 2.269531 19.070312 3.441407 28.953124 3.441407 9.910157 0 19.574219-1.191407 28.851563-3.433594zm-28.851563-32.90625c-28.578124 0-55.441406-11.125-75.652343-31.332031-20.207031-20.207031-31.332031-47.078125-31.332031-75.664062v-40.117188c15.675781-2.332031 28.96875-11.984375 38.761718-28.273437 3.945313-6.5625 6.648438-13.097656 8.398438-18.15625 8.152344 3.8125 21.730468 9.414062 38.96875 13.789062 24.472656 6.207032 60.957031 10.886719 99.539062-.273437 3.9375 14.839843 11.117188 28.886719 21.335938 41.578125-3.4375 16.5-10.414063 37.738281-24.507813 51.832031-2.203125 2.203125-2.835937 5.523437-1.605469 8.382813 1.203126 2.789062 3.949219 4.589843 6.976563 4.589843.074219 0 .148437 0 .222656-.003906.785157-.019531 9.289063-.324219 21.394531-2.652344-13.328124 44.84375-54.691406 76.300781-102.5 76.300781zm0 0"/><path d="m411.382812 95.605469-48.496093 94.574219-34.605469-34.785157c-2.960938-2.976562-7.773438-2.988281-10.75-.027343-2.976562 2.957031-2.988281 7.769531-.027344 10.746093l41.988282 42.203125c1.4375 1.445313 3.378906 2.238282 5.386718 2.238282.386719 0 .777344-.027344 1.167969-.089844 2.40625-.375 4.484375-1.875 5.59375-4.042969l53.265625-103.882813c1.917969-3.734374.441406-8.316406-3.292969-10.230468-3.734375-1.914063-8.316406-.441406-10.230469 3.296875zm0 0"/><path d="m197.867188 215.082031c-4.199219 0-7.601563 3.402344-7.601563 7.597657v15.925781c0 4.195312 3.402344 7.597656 7.601563 7.597656 4.195312 0 7.597656-3.402344 7.597656-7.597656v-15.925781c0-4.195313-3.402344-7.597657-7.597656-7.597657zm0 0"/><path d="m116.339844 246.203125c4.195312 0 7.597656-3.402344 7.597656-7.597656v-15.925781c0-4.195313-3.402344-7.597657-7.597656-7.597657-4.199219 0-7.601563 3.402344-7.601563 7.597657v15.925781c0 4.195312 3.402344 7.597656 7.601563 7.597656zm0 0"/><path d="m196.820312 264.589844h-79.4375c-4.199218 0-7.601562 3.402344-7.601562 7.597656v5.636719c0 24.082031 19.59375 43.667969 43.671875 43.667969h7.296875c24.082031 0 43.671875-19.589844 43.671875-43.667969v-5.636719c0-4.195312-3.402344-7.597656-7.601563-7.597656zm-36.066406 41.703125h-7.300781c-15.039063 0-27.390625-11.71875-28.402344-26.503907h64.105469c-1.015625 14.785157-13.367188 26.503907-28.402344 26.503907zm0 0"/></svg>