<svg height="511pt" viewBox="0 0 511 511.99827" width="511pt" xmlns="http://www.w3.org/2000/svg"><path d="m193.550781 391.789062h53.085938c27.21875 0 49.277343 22.058594 49.277343 49.277344v63.335938h-277.734374v-63.335938c0-27.21875 22.058593-49.277344 49.273437-49.277344h53.089844" fill="#515f75"/><path d="m96.328125 391.789062 32.082031 112.613282h57.277344l32.085938-112.613282" fill="#f2f2f2"/><path d="m193.554688 328.519531v63.273438l-36.503907 20.566406-11.28125-6.351563-25.222656-14.214843v-63.3125l25.222656.011719zm0 0" fill="#f9c2af"/><path d="m128.609375 504.402344 29.007813-35.839844 28.070312 35.839844" fill="#f74866"/><path d="m145.769531 328.492188-25.222656-.011719v63.3125l25.222656 14.214843v-29.273437c3.730469.363281 7.503907.574219 11.332031.574219 12.742188 0 25.003907-2.082032 36.453126-5.921875v-42.867188zm0 0" fill="#ea9e8f"/><path d="m42.511719 261.90625c-19.007813 0-34.414063-13.792969-34.414063-30.808594s15.40625-30.808594 34.414063-30.808594h229.179687c19.003906 0 34.414063 13.792969 34.414063 30.808594s-15.410157 30.808594-34.414063 30.808594" fill="#ea9e8f"/><path d="m271.691406 132.867188v114.589843c0 63.285157-51.304687 114.585938-114.589844 114.585938-63.285156 0-114.589843-51.300781-114.589843-114.585938v-114.589843" fill="#f9c2af"/><path d="m156.289062 362.039062c-31.324218-.210937-59.648437-12.996093-80.214843-33.550781-20.738281-20.746093-33.5625-49.386719-33.5625-81.03125v-114.59375h51.589843v114.59375c0 31.644531 7.046876 60.285157 18.453126 81.03125 11.222656 20.410157 26.65625 33.15625 43.734374 33.550781zm0 0" fill="#ea9e8f"/><path d="m243.285156 164c-41.519531 14.960938-81.714844 9.925781-110.148437 2 0 0-.007813 0-.007813-.007812-24.757812-6.898438-40.585937-16-40.585937-16s-10.453125 50.292968-50.03125 50.292968c0 0-26.332031-46.578125-25.503907-89.671875.429688-22.347656 18.855469-39.0625 39.796876-39.0625 3.914062 0 7.914062.578125 11.898437 1.820313 11.21875-30.121094 40.851563-49.183594 72.9375-47.234375 4.996094.308593 10.023437.707031 15.070313 1.164062.964843.082031 1.941406.171875 2.90625.257813.101562.011718.199218.023437.300781.03125 52.371093 4.917968 105.417969 14.496094 136.585937-19.988282 0 0 51.515625 118.671876-53.21875 156.398438zm0 0" fill="#515f75"/><path d="m141.640625 26.136719c4.996094.308593 10.023437.707031 15.070313 1.164062-46.210938-1.949219-82.921876 99.816407-23.582032 138.691407-24.757812-6.898438-40.585937-16-40.585937-16s-10.453125 50.292968-50.03125 50.292968c0 0-26.332031-46.578125-25.503907-89.671875.429688-22.347656 18.855469-39.0625 39.796876-39.0625 3.914062 0 7.914062.578125 11.898437 1.820313 11.21875-30.121094 40.851563-49.183594 72.9375-47.234375zm0 0" fill="#3b485b"/><path d="m131.933594 437.476562 24.355468 31.085938 25.164063-31.085938-24.402344-25.117187z" fill="#f74866"/><path d="m159.9375 27.601562c-.109375-.019531-.210938-.03125-.320312-.039062.101562.007812.199218.019531.300781.027344zm0 0" fill="#f4af9d"/><path d="m159.894531 267.125h-5.585937c-15.246094 0-27.605469 12.359375-27.605469 27.605469v4.3125h60.796875v-4.3125c0-15.246094-12.359375-27.605469-27.605469-27.605469zm0 0" fill="#f74866"/><path d="m371.558594 34.457031c-72.738282 0-131.703125 50.519531-131.703125 112.832031 0 24.925782 9.441406 47.960938 25.417969 66.632813-3.308594 17.722656-10.738282 42.734375-27.285157 59.28125 0 0 42.347657-1.214844 74.472657-25.058594 17.773437 7.660157 37.847656 11.976563 59.097656 11.976563 72.738281 0 131.707031-50.515625 131.707031-112.832032-.003906-62.3125-58.96875-112.832031-131.707031-112.832031zm0 0" fill="#f74866"/><path d="m332.390625 179.890625c-6.820313 0-12.160156 5.34375-12.160156 12.160156 0 6.707031 5.457031 12.160157 12.160156 12.160157 6.476563 0 12.160156-5.679688 12.160156-12.160157 0-6.589843-5.570312-12.160156-12.160156-12.160156zm0 0"/><path d="m323.417969 160.554688c0 4.289062 3.285156 6.851562 8.796875 6.851562 3.398437 0 8.796875-1.859375 8.796875-6.851562 0-11.675782.628906-25.527344 1.238281-38.921876.609375-13.398437 1.238281-27.253906 1.238281-38.933593 0-5.804688-4.636719-9.859375-11.273437-9.859375-6.636719 0-11.097656 3.960937-11.097656 9.859375 0 11.679687.585937 25.535156 1.152343 38.933593.5625 13.394532 1.148438 27.246094 1.148438 38.921876zm0 0"/><path d="m362.339844 160.554688c0 4.289062 3.289062 6.851562 8.796875 6.851562 3.402343 0 8.796875-1.859375 8.796875-6.851562 0-11.675782.628906-25.527344 1.242187-38.921876.605469-13.398437 1.238281-27.253906 1.238281-38.933593 0-5.804688-4.636718-9.859375-11.273437-9.859375-6.640625 0-11.097656 3.960937-11.097656 9.859375 0 11.679687.582031 25.535156 1.148437 38.933593.566406 13.394532 1.148438 27.246094 1.148438 38.921876zm0 0"/><path d="m371.316406 179.890625c-6.820312 0-12.160156 5.34375-12.160156 12.160156 0 6.707031 5.453125 12.160157 12.160156 12.160157 6.476563 0 12.15625-5.679688 12.15625-12.160157 0-6.589843-5.566406-12.160156-12.15625-12.160156zm0 0"/><path d="m401.265625 160.554688c0 4.289062 3.289063 6.851562 8.796875 6.851562 3.402344 0 8.796875-1.859375 8.796875-6.851562 0-11.675782.628906-25.527344 1.238281-38.921876.609375-13.398437 1.242188-27.253906 1.242188-38.933593 0-5.804688-4.636719-9.859375-11.277344-9.859375-6.636719 0-11.097656 3.960937-11.097656 9.859375 0 11.679687.585937 25.535156 1.152344 38.933593.5625 13.394532 1.148437 27.246094 1.148437 38.921876zm0 0"/><path d="m410.238281 179.890625c-6.816406 0-12.15625 5.34375-12.15625 12.160156 0 6.707031 5.453125 12.160157 12.15625 12.160157 6.480469 0 12.160157-5.679688 12.160157-12.160157 0-6.589843-5.566407-12.160156-12.160157-12.160156zm0 0"/><path d="m197.863281 215.085938c-4.195312 0-7.597656 3.402343-7.597656 7.597656v15.921875c0 4.199219 3.402344 7.601562 7.597656 7.601562 4.199219 0 7.601563-3.402343 7.601563-7.601562v-15.921875c0-4.195313-3.402344-7.597656-7.601563-7.597656zm0 0"/><path d="m123.9375 238.605469v-15.921875c0-4.195313-3.402344-7.597656-7.601562-7.597656-4.195313 0-7.597657 3.402343-7.597657 7.597656v15.921875c0 4.199219 3.402344 7.601562 7.597657 7.601562 4.199218 0 7.601562-3.402343 7.601562-7.601562zm0 0"/><path d="m139.519531 193.355469c-.671875-4.144531-4.574219-6.960938-8.714843-6.292969l-31.355469 5.066406c-4.144531.671875-6.960938 4.574219-6.292969 8.71875.605469 3.730469 3.828125 6.386719 7.492188 6.386719.402343 0 .8125-.03125 1.222656-.097656l31.359375-5.066407c4.140625-.671874 6.957031-4.574218 6.289062-8.714843zm0 0"/><path d="m214.753906 192.132812-31.355468-5.066406c-4.144532-.671875-8.042969 2.144532-8.714844 6.289063-.667969 4.144531 2.148437 8.046875 6.292968 8.714843l31.355469 5.066407c.410157.066406.816407.097656 1.21875.097656 3.664063 0 6.890625-2.65625 7.496094-6.386719.667969-4.144531-2.148437-8.046875-6.292969-8.714844zm0 0"/><path d="m159.894531 259.523438h-5.585937c-19.414063 0-35.207032 15.792968-35.207032 35.207031v4.3125c0 4.199219 3.402344 7.601562 7.601563 7.601562h60.796875c4.195312 0 7.597656-3.402343 7.597656-7.601562v-4.3125c0-19.414063-15.792968-35.207031-35.203125-35.207031zm-25.324219 31.917968c1.574219-9.472656 9.824219-16.714844 19.738282-16.714844h5.585937c9.910157 0 18.164063 7.242188 19.734375 16.714844zm0 0"/><path d="m371.558594 26.859375c-20.769532 0-40.484375 3.953125-58.207032 11.03125-3.851562-19.277344-9.597656-32.667969-9.875-33.3125-1.027343-2.371094-3.191406-4.058594-5.742187-4.476563-2.542969-.421874-5.136719.484376-6.867187 2.402344-25.5 28.210938-68.789063 23.773438-114.617188 19.078125-11.207031-1.144531-22.792969-2.332031-34.148438-3.023437-33.472656-2.042969-63.980468 16.222656-77.917968 45.972656-2.445313-.386719-4.914063-.582031-7.390625-.582031-25.636719 0-46.890625 20.863281-47.378907 46.507812-.636718 33.058594 13.5625 67.351563 21.441407 83.746094-17.511719 4.632813-30.355469 19.414063-30.355469 36.894531 0 19.414063 15.84375 35.5 36.328125 38.046875 4.34375 24.386719 15.996094 46.835938 33.875 64.714844 12.226563 12.226563 26.589844 21.542969 42.242187 27.601563v22.726562h-45.492187c-31.359375 0-56.875 25.515625-56.875 56.875v63.335938c0 4.195312 3.402344 7.601562 7.601563 7.601562h277.734374c4.199219 0 7.597657-3.40625 7.597657-7.601562v-63.335938c0-31.359375-25.511719-56.875-56.875-56.875h-45.484375v-22.714844c37.375-14.414062 66.222656-46.710937 75.226562-87.445312 11.832032-3.5625 24.933594-8.984375 37.058594-17.253906 18.265625 7.269531 37.796875 10.949218 58.121094 10.949218 27.726562 0 54.507812-7.019531 77.445312-20.292968 3.632813-2.101563 4.871094-6.75 2.769532-10.382813-2.101563-3.636719-6.753907-4.875-10.386719-2.773437-20.625 11.941406-44.773438 18.25-69.828125 18.25-19.730469 0-38.601563-3.820313-56.089844-11.359376-2.492188-1.070312-5.363281-.738281-7.539062.878907-17.375 12.894531-38.265626 18.761719-52.710938 21.414062 9.785156-15.761719 14.882812-33.996093 17.523438-48.136719.421874-2.257812-.199219-4.589843-1.695313-6.335937-15.433594-18.039063-23.59375-39.371094-23.59375-61.695313 0-58.023437 55.671875-105.230468 124.105469-105.230468 68.429687 0 124.101562 47.207031 124.101562 105.230468 0 26.8125-11.917968 52.359376-33.5625 71.941407-3.113281 2.8125-3.355468 7.621093-.539062 10.730469 2.816406 3.113281 7.621094 3.355468 10.734375.539062 24.871093-22.496094 38.570312-52.046875 38.570312-83.210938 0-66.40625-62.492187-120.429687-139.304687-120.429687zm-355.863282 204.238281c0-10.511718 8.125-19.410156 19.21875-22.253906v38.609375c0 1.984375.050782 3.964844.144532 5.933594-11.171875-2.804688-19.363282-11.730469-19.363282-22.289063zm179.859376 168.289063h12.152343l-11.726562 41.15625-26.476563-26.476563zm42.390624 0 2.460938 62.304687-25.859375 6.464844c-2.660156.664062-4.753906 2.707031-5.484375 5.347656-.730469 2.636719.015625 5.464844 1.953125 7.402344l15.894531 15.894531h-31.152344l27.753907-97.414062zm-80.894531 23.71875 14.507813 14.511719-15.171875 18.746093-14.316407-18.273437zm34.164063 34.167969-8.746094 30.691406-15.789062-20.160156 15.6875-19.378907zm-59.972656-8.359376 15.984374 20.40625-15.464843 19.105469-8.878907-31.15625zm26.277343 31.851563 12.5625 16.035156h-25.542969zm-39.402343-40.222656-11.722657-41.15625h12.148438l26.050781 14.679687zm-92.339844.523437c0-20.757812 15.253906-38.011718 35.136718-41.160156l-.765624 19.367188c-.164063 4.195312 3.101562 7.730468 7.296874 7.894531.101563.003906.203126.007812.304688.007812 4.058594 0 7.425781-3.210937 7.589844-7.300781l.804687-20.484375h14.445313l27.753906 97.410156h-31.160156l15.894531-15.894531c1.9375-1.9375 2.679687-4.765625 1.949219-7.402344-.730469-2.640625-2.824219-4.679687-5.480469-5.34375l-25.859375-6.464844.582031-14.734374c.164063-4.195313-3.101562-7.726563-7.296875-7.894532-4.171875-.15625-7.726562 3.101563-7.894531 7.292969l-.824219 20.910156c-.140625 3.59375 2.261719 6.796875 5.75 7.671875l18.835938 4.707032-17.152344 17.152343h-39.910156zm262.535156 0v55.734375h-39.910156l-17.152344-17.152343 18.835938-4.707032c3.492187-.875 5.890624-4.074218 5.75-7.671875l-2.660157-67.363281c19.886719 3.148438 35.136719 20.402344 35.136719 41.160156zm-102.359375-53.714844-28.902344 16.285157-28.90625-16.285157v-21.140624c9.371094 2.265624 19.074219 3.4375 28.957031 3.4375 9.910157 0 19.574219-1.1875 28.851563-3.429688zm71.167969-171.355468c-3.4375 16.503906-10.417969 37.742187-24.507813 51.835937-2.203125 2.199219-2.839843 5.523438-1.605469 8.378907 1.203126 2.792968 3.949219 4.59375 6.976563 4.59375.074219 0 .148437 0 .21875-.003907.789063-.023437 9.292969-.324219 21.398437-2.652343-13.332031 44.839843-54.695312 76.300781-102.5 76.300781-28.578124 0-55.445312-11.128907-75.652343-31.335938-20.207031-20.203125-31.335938-47.074219-31.335938-75.660156v-40.121094c15.675781-2.332031 28.972657-11.980469 38.765625-28.273437 3.945313-6.558594 6.648438-13.097656 8.398438-18.152344 8.152344 3.8125 21.730468 9.414062 38.964844 13.789062 24.476562 6.207032 60.960937 10.886719 99.542968-.273437 3.9375 14.835937 11.117188 28.886719 21.335938 41.574219zm-24.867188-68.707032c0 4.074219.253906 8.113282.714844 12.113282-70.4375 21.132812-135.972656-15.617188-136.636719-16-2.109375-1.210938-4.671875-1.332032-6.890625-.34375-2.21875.992187-3.832031 2.996094-4.335937 5.375-.023438.113281-2.546875 11.785156-9.445313 23.117187-7.582031 12.457031-17.222656 19.460938-28.703125 20.875-6.125-12.046875-22.992187-48.363281-22.347656-81.675781.332031-17.421875 14.769531-31.597656 32.183594-31.597656 3.261719 0 6.507812.496094 9.652343 1.476562 3.855469 1.203125 7.976563-.816406 9.386719-4.601562 10.070313-27.070313 36.34375-44.0625 65.34375-42.296875 11.042969.671875 22.472657 1.84375 33.523438 2.976562 43.238281 4.429688 87.816406 8.992188 118.601562-15.667969 1.898438 5.921876 4.148438 14.03125 5.820313 23.417969-40.066406 21.171875-66.867188 59.347657-66.867188 102.832031zm0 0"/></svg>