<svg height="511pt" viewBox="-2 0 511 511.99343" width="511pt" xmlns="http://www.w3.org/2000/svg"><path d="m193.597656 391.695312h53.097656c27.203126 0 49.300782 22.097657 49.300782 49.296876v63.300781h-277.699219v-63.300781c0-27.199219 22.101563-49.296876 49.300781-49.296876h53.097656" fill="#515f75"/><path d="m96.398438 391.695312 32.097656 112.597657h57.300781l32-112.597657" fill="#f2f2f2"/><path d="m193.597656 328.492188v63.203124l-36.5 20.597657-11.300781-6.398438-25.199219-14.199219v-63.300781h25.199219zm0 0" fill="#f9c2af"/><path d="m128.695312 504.292969 29-35.800781 28.101563 35.800781" fill="#f74866"/><path d="m145.796875 328.394531h-25.199219v63.300781l25.199219 14.199219v-29.300781c3.699219.398438 7.5.601562 11.300781.601562 12.699219 0 25-2.101562 36.398438-5.902343v-42.898438zm0 0" fill="#ea9e8f"/><path d="m42.597656 261.894531c-19 0-34.402344-13.800781-34.402344-30.800781s15.402344-30.800781 34.402344-30.800781h229.097656c19 0 34.402344 13.800781 34.402344 30.800781s-15.402344 30.800781-34.402344 30.800781" fill="#ea9e8f"/><path d="m271.695312 132.792969v114.601562c0 63.300781-51.296874 114.597657-114.597656 114.597657-63.300781 0-114.601562-51.296876-114.601562-114.597657v-114.601562" fill="#f9c2af"/><path d="m156.398438 361.992188c-31.300782-.199219-59.601563-13-80.203126-33.5-20.699218-20.699219-33.597656-49.398438-33.597656-81v-114.699219h51.597656v114.601562c0 31.597657 7 60.300781 18.402344 81 11.300782 20.398438 26.699219 33.199219 43.800782 33.597657zm0 0" fill="#ea9e8f"/><path d="m243.398438 163.992188c-41.5 15-81.703126 9.902343-110.101563 2-24.800781-6.898438-40.601563-16-40.601563-16s-10.5 50.300781-50 50.300781c0 0-26.296874-46.597657-25.5-89.699219.300782-22.398438 18.800782-39.101562 39.703126-39.101562 3.898437 0 7.898437.601562 11.898437 1.800781 11.199219-30.097657 40.800781-49.199219 72.898437-47.199219 5 .300781 10 .699219 15.101563 1.199219 1 .101562 1.898437.199219 2.898437.300781h.300782c52.402344 4.898438 105.402344 14.5 136.601562-20 0 0 51.5 118.601562-53.199218 156.398438zm0 0" fill="#515f75"/><path d="m141.695312 26.09375c5 .300781 10 .699219 15.101563 1.199219-46.199219-2-82.898437 99.800781-23.601563 138.699219-24.796874-6.898438-40.597656-16-40.597656-16s-10.5 50.300781-50 50.300781c0 0-26.300781-46.597657-25.5-89.699219.398438-22.398438 18.898438-39.101562 39.800782-39.101562 3.898437 0 7.898437.601562 11.898437 1.800781 11.199219-30.097657 40.800781-49.097657 72.898437-47.199219zm0 0" fill="#3b485b"/><path d="m131.996094 437.394531 24.402344 31.097657 25.097656-31.097657-24.398438-25.101562z" fill="#f74866"/><path d="m271.898438 229.695312h228.898437v274.699219h-228.898437zm0 0" fill="#e6e6e6"/><path d="m430.398438 213.792969v33.5c0 8.800781-7.101563 15.902343-15.902344 15.902343h-56.300782c-8.699218 0-15.898437-7.101562-15.898437-15.902343v-33.5c0-8.800781 7.101563-15.898438 15.898437-15.898438h56.300782c8.800781.097657 15.902344 7.199219 15.902344 15.898438zm0 0" fill="#f4af9d"/><path d="m430.398438 213.792969v33.5c0 8.800781-7.101563 15.902343-15.902344 15.902343h-29.699219c-8.800781 0-15.898437-7.101562-15.898437-15.902343v-33.5c0-8.800781 7.097656-15.898438 15.898437-15.898438h29.699219c8.800781.097657 15.902344 7.199219 15.902344 15.898438zm0 0" fill="#f9c2af"/><path d="m319.996094 467.09375-37.300782 37.300781h-3.199218l-45.097656-45.101562 38.898437-38.898438c4.300781-4.300781 11.300781-4.300781 15.601563 0l18.796874 18.800781 12.300782 12.296876c4.300781 4.300781 4.300781 11.300781 0 15.601562zm0 0" fill="#f4af9d"/><path d="m319.996094 467.09375-37.300782 37.300781h-3.199218l-26.300782-26.300781 38.902344-38.898438c4.300782-4.300781 11.300782-4.300781 15.597656 0l12.300782 12.296876c4.300781 4.300781 4.300781 11.300781 0 15.601562zm0 0" fill="#f9c2af"/><path d="m279.496094 504.394531h-90.199219l45.101563-45.101562zm0 0" fill="#515f75"/><path d="m253.097656 477.894531-26.5 26.5h-37.300781l45.101563-45.101562zm0 0" fill="#3b485b"/><path d="m197.898438 246.195312c4.199218 0 7.597656-3.402343 7.597656-7.601562v-15.898438c0-4.203124-3.398438-7.601562-7.597656-7.601562-4.203126 0-7.601563 3.398438-7.601563 7.601562v15.898438c0 4.199219 3.398437 7.601562 7.601563 7.601562zm0 0"/><path d="m123.996094 238.59375v-15.898438c0-4.203124-3.398438-7.601562-7.597656-7.601562-4.203126 0-7.601563 3.398438-7.601563 7.601562v15.898438c0 4.199219 3.398437 7.601562 7.601563 7.601562 4.199218 0 7.597656-3.402343 7.597656-7.601562zm0 0"/><path d="m190.695312 293.195312c3-3 3-7.800781 0-10.703124-3-3-7.796874-3-10.699218 0-12.5 12.5-32.898438 12.5-45.5 0-3-3-7.800782-3-10.699219 0s-3 7.800781 0 10.703124c9.199219 9.199219 21.398437 13.796876 33.5 13.796876 12 .101562 24.101563-4.597657 33.398437-13.796876zm0 0"/><path d="m500.796875 279.195312c4.199219 0 7.601563-3.402343 7.601563-7.601562v-42c0-4.199219-3.402344-7.601562-7.601563-7.601562h-62.800781v-8.199219c0-12.898438-10.5-23.5-23.5-23.5h-56.300782c-12.898437 0-23.5 10.5-23.5 23.5v8.199219h-22.097656c-3.800781-14.699219-16.902344-26.097657-33.300781-28.796876v-40.101562c12.800781-9.898438 22.398437-22.199219 28.699219-36.800781 21.800781-50.097657-3.398438-109.199219-4.5-111.699219-1-2.398438-3.199219-4.101562-5.699219-4.5-2.601563-.398438-5.101563.5-6.898437 2.398438-25.5 28.203124-68.800782 23.800781-114.601563 19.101562-11.199219-1.101562-22.800781-2.300781-34.101563-3-33.5-2-64 16.199219-77.898437 46-12.300781-2-24.800781 1-35.101563 8.398438-12.199218 8.703124-19.398437 22.402343-19.699218 37.402343-.597656 33.097657 13.601562 67.300781 21.402344 83.699219-17.5 4.601562-30.402344 19.398438-30.402344 36.898438 0 19.402343 15.800781 35.5 36.300781 38 4.300781 24.402343 16 46.800781 33.898437 64.703124 12.203126 12.199219 26.601563 21.5 42.203126 27.597657v22.699219h-16.300782c-.101562 0-.101562 0-.199218 0h-28.902344c-17.898438 0-35 8.601562-45.699219 23-2.5 3.402343-1.800781 8.101562 1.601563 10.601562 1.398437 1 3 1.5 4.5 1.5 2.296874 0 4.597656-1.101562 6.097656-3.101562 6.601562-8.898438 16.199218-14.699219 26.902344-16.296876l-2.703126 67.296876c-.097656 3.601562 2.300782 6.800781 5.800782 7.703124l18.800781 4.699219-17.101563 17.097657h-39.796874v-55.5c0-4.199219-3.402344-7.597657-7.601563-7.597657s-7.601563 3.398438-7.601563 7.597657v63.300781c0 4.199219 3.402344 7.601562 7.601563 7.601562l482.5.097657c4.199219 0 7.601563-3.398438 7.601563-7.597657v-202.402343c0-4.199219-3.402344-7.597657-7.601563-7.597657s-7.601563 3.398438-7.601563 7.597657v194.800781h-192.199218l24.402344-24.398438c3.5-3.5 5.398437-8.199219 5.398437-13.199219s-1.898437-9.601562-5.398437-13.203124l-31.101563-31c-.800781-.796876-1.699219-1.5-2.601563-2.199219l19.800782-19.800781c3-3 3-7.796876 0-10.699219-3-3-7.800782-3-10.699219 0l-21.300781 21.199219v-166.199219h55.300781v10c0 12.902343 10.5 23.5 23.5 23.5h56.199219c12.902344 0 23.5-10.5 23.5-23.5v-10h55.199218v34.402343c0 4.097657 3.402344 7.5 7.601563 7.5zm-246.398437 149.296876-1.101563-28.699219c3.800781.601562 7.5 1.699219 11 3.402343v15.398438zm-135.800782-29.199219 26 14.699219-26.5 26.5-11.601562-41.199219zm77 0h12.199219l-11.699219 41.101562-26.5-26.402343zm42.398438 0 1.699218 43.902343-40.097656 40.097657 23.898438-83.898438zm-80.898438 23.699219 14.5 14.5-15.101562 18.800781-14.398438-18.300781zm-25.800781 25.800781 16 20.402343-15.5 19.097657-8.898437-31.097657zm51.101563-.398438 8.796874 8.800781-8.699218 30.699219-15.800782-20.199219zm-24.800782 32.300781 12.597656 16h-25.5zm76.800782-10.703124 26.699218 26.703124h-53.402344zm29.898437-83.097657c-5.601563-1.800781-11.601563-2.800781-17.601563-2.800781h-28.898437c-.101563 0-.101563 0-.199219 0h-16.402344v-22.800781c26.902344-10.398438 49.203126-30.199219 63-55.199219zm-239.601563-276.199219c.203126-10.203124 5.101563-19.5 13.300782-25.5 5.601562-4 12.101562-6.101562 18.800781-6.101562 3.199219 0 6.5.5 9.699219 1.5 3.902344 1.199219 8-.800781 9.402344-4.601562 10.097656-27.097657 36.296874-44.097657 65.296874-42.296876 11 .699219 22.5 1.796876 33.5 3 43.203126 4.398438 87.800782 9 118.601563-15.703124 5.800781 18.101562 14.898437 56.601562.800781 89.300781-9.199218 21.402343-27.199218 37-53.300781 46.402343-73.300781 26.5-143.699219-12.902343-144.398437-13.300781-2.101563-1.199219-4.703126-1.300781-6.902344-.300781-2.199219 1-3.800782 3-4.300782 5.398438-.097656.402343-8.699218 40.300781-38.097656 44-6.199218-12.199219-23-48.5-22.402344-81.796876zm-8.898437 120.398438c0-10.5 8.101563-19.398438 19.199219-22.199219v38.597657c0 2 0 4 .101562 5.902343-11.101562-2.902343-19.300781-11.800781-19.300781-22.300781zm34.398437 16.300781v-40.101562c15.703126-2.300781 29-12 38.800782-28.300781 3.902344-6.597657 6.601562-13.097657 8.402344-18.097657 8.296874 3.898438 22.097656 9.597657 39.699218 14 48.097656 12 85.800782 4.597657 108.898438-3.699219 6.5-2.300781 12.601562-5 18.199218-8.101562v84.398438c0 59-48 107-107 107-28.597656 0-55.398437-11.097657-75.597656-31.296876-20.300781-20.300781-31.402344-47.203124-31.402344-75.800781zm107 122.199219c9.902344 0 19.601563-1.199219 28.800782-3.5v21.101562l-28.898438 16.296876-28.902344-16.296876v-21.101562c9.402344 2.300781 19.101563 3.5 29 3.5zm-52.097656 103.800781c-.699218-2.601562-2.800781-4.699219-5.5-5.300781l-25.902344-6.5 2.5-62.300781h14.402344l27.699219 97.402343h-31l15.898437-15.902343c1.902344-1.898438 2.601563-4.699219 1.902344-7.398438zm209.597656-16.5c.902344.898438 1 1.898438 1 2.398438s-.097656 1.5-1 2.402343l-33.5 33.5-35.898437-36 30.101563-30.101562c1.5-.699219 2.699218-1.898438 3.398437-3.398438 1.300781-1.300781 3.5-1.300781 4.800781 0zm-35.398437-234.800781v-13.300781c7.800781 2 14 6.902343 17.101563 13.300781zm143.5 25.199219c0 4.601562-3.699219 8.300781-8.300781 8.300781h-56.300782c-4.597656 0-8.296874-3.699219-8.296874-8.300781v-33.5c0-4.597657 3.699218-8.300781 8.296874-8.300781h56.300782c4.601562 0 8.300781 3.703124 8.300781 8.300781zm0 0"/><path d="m453.695312 304.59375h-132.699218c-4.199219 0-7.597656 3.398438-7.597656 7.601562 0 4.199219 3.398437 7.597657 7.597656 7.597657h132.699218c4.203126 0 7.601563-3.398438 7.601563-7.597657 0-4.203124-3.398437-7.601562-7.601563-7.601562zm0 0"/><path d="m453.695312 348.792969h-132.699218c-4.199219 0-7.597656 3.402343-7.597656 7.601562s3.398437 7.597657 7.597656 7.597657h132.699218c4.203126 0 7.601563-3.398438 7.601563-7.597657s-3.398437-7.601562-7.601563-7.601562zm0 0"/><path d="m461.296875 400.59375c0-4.199219-3.398437-7.601562-7.601563-7.601562h-132.699218c-4.199219 0-7.597656 3.402343-7.597656 7.601562s3.398437 7.601562 7.597656 7.601562h132.699218c4.203126 0 7.601563-3.402343 7.601563-7.601562zm0 0"/><path d="m341.097656 437.292969c-4.199218 0-7.601562 3.402343-7.601562 7.601562s3.402344 7.597657 7.601562 7.597657h92.597656c4.203126 0 7.601563-3.398438 7.601563-7.597657s-3.398437-7.601562-7.601563-7.601562zm0 0"/></svg>