<svg height="512pt" viewBox="0 0 512 512" width="512pt" xmlns="http://www.w3.org/2000/svg"><path d="m164.085938 311.101562h41.9375c21.5 0 38.929687 17.429688 38.929687 38.929688v50.035156h-219.410156v-50.035156c0-21.5 17.429687-38.929688 38.929687-38.929688h41.9375" fill="#515f75"/><path d="m87.28125 311.101562 25.34375 88.964844h45.25l25.347656-88.964844" fill="#f2f2f2"/><path d="m164.089844 261.121094v49.984375l-28.839844 16.246093-8.910156-5.015624-19.925782-11.230469v-50.015625l19.925782.007812zm0 0" fill="#f9c2af"/><path d="m112.78125 400.066406 22.917969-28.3125 22.175781 28.3125" fill="#f74866"/><path d="m126.339844 261.097656-19.925782-.007812v50.015625l19.925782 11.230469v-23.128907c2.945312.289063 5.929687.457031 8.949218.457031 10.066407 0 19.753907-1.644531 28.796876-4.679687v-33.863281zm0 0" fill="#ea9e8f"/><path d="m44.769531 208.496094c-15.015625 0-27.1875-10.894532-27.1875-24.335938s12.171875-24.339844 27.1875-24.339844h181.046875c15.015625 0 27.1875 10.898438 27.1875 24.339844s-12.171875 24.335938-27.1875 24.335938" fill="#ea9e8f"/><path d="m225.816406 106.558594v90.523437c0 49.996094-40.53125 90.523438-90.523437 90.523438-49.996094 0-90.523438-40.527344-90.523438-90.523438v-90.523437" fill="#f9c2af"/><path d="m134.648438 287.601562c-24.746094-.164062-47.121094-10.265624-63.367188-26.507812-16.382812-16.386719-26.515625-39.011719-26.515625-64.011719v-90.527343h40.757813v90.527343c0 25 5.566406 47.625 14.574218 64.011719 8.867188 16.128906 21.0625 26.195312 34.550782 26.507812zm0 0" fill="#ea9e8f"/><path d="m203.378906 131.152344c-32.804687 11.820312-64.558594 7.839844-87.015625 1.582031 0 0-.007812 0-.007812-.007813-19.558594-5.449218-32.0625-12.640624-32.0625-12.640624s-8.257813 39.730468-39.523438 39.730468c0 0-20.800781-36.796875-20.148437-70.839844.339844-17.652343 14.894531-30.859374 31.441406-30.859374 3.089844 0 6.25.457031 9.394531 1.441406 8.863281-23.796875 32.277344-38.859375 57.621094-37.316406 3.949219.242187 7.917969.558593 11.90625.921874.761719.0625 1.535156.132813 2.296875.203126.078125.007812.15625.015624.234375.023437 41.375 3.886719 83.28125 11.449219 107.90625-15.789063-.003906 0 40.691406 93.746094-42.042969 123.550782zm0 0" fill="#515f75"/><path d="m123.078125 22.242188c3.945313.246093 7.917969.558593 11.90625.921874-36.507813-1.539062-65.507813 78.855469-18.632813 109.5625-19.558593-5.449218-32.058593-12.636718-32.058593-12.636718s-8.257813 39.726562-39.527344 39.726562c0 0-20.800781-36.792968-20.144531-70.839844.335937-17.652343 14.894531-30.855468 31.4375-30.855468 3.09375 0 6.253906.453125 9.398437 1.4375 8.863281-23.796875 32.273438-38.855469 57.621094-37.316406zm0 0" fill="#3b485b"/><path d="m115.410156 347.195312 19.238282 24.558594 19.882812-24.558594-19.28125-19.84375z" fill="#f74866"/><path d="m137.53125 23.398438c-.085938-.015626-.164062-.023438-.25-.03125.078125.007812.15625.015624.234375.023437zm0 0" fill="#f4af9d"/><path d="m354.710938 345.488281h70.96875v71.8125h-70.96875zm0 0" fill="#e6e6e6"/><path d="m354.710938 345.488281h70.96875v33.878907h-70.96875zm0 0" fill="#ccc"/><path d="m43.089844 427.613281h425.820312v76.78125h-425.820312zm0 0" fill="#efa233"/><path d="m43.089844 427.613281h425.820312v38.390625h-425.820312zm0 0" fill="#dd8c22"/><path d="m7.605469 400.066406h496.789062v40.726563h-496.789062zm0 0" fill="#efa233"/><path d="m275.996094 163.832031h228.398437v194.839844h-228.398437zm0 0" fill="#ccc"/><path d="m305.683594 163.832031h198.710937v194.839844h-198.710937zm0 0" fill="#e6e6e6"/><path d="m333.65625 358.671875h21.054688v41.394531h-21.054688zm0 0" fill="#ccc"/><path d="m446.609375 75.800781c0 30.238281-24.511719 54.75-54.75 54.75-30.234375 0-54.746094-24.511719-54.746094-54.75 0-30.234375 24.511719-54.746093 54.746094-54.746093 30.238281 0 54.75 24.511718 54.75 54.746093zm0 0" fill="#79bbe8"/><path d="m421.261719 75.800781-44.609375-25.753906v51.507813zm0 0" fill="#fff"/><path d="m187.773438 197.695312c4.199218 0 7.601562-3.402343 7.601562-7.601562v-12.582031c0-4.199219-3.402344-7.601563-7.601562-7.601563-4.199219 0-7.605469 3.402344-7.605469 7.601563v12.582031c0 4.199219 3.40625 7.601562 7.605469 7.601562zm0 0"/><path d="m130.972656 190.09375v-12.582031c0-4.199219-3.40625-7.601563-7.605468-7.601563-4.199219 0-7.601563 3.402344-7.601563 7.601563v12.582031c0 4.199219 3.402344 7.601562 7.601563 7.601562 4.199218 0 7.605468-3.402343 7.605468-7.601562zm0 0"/><path d="m183.15625 234.390625c2.96875-2.96875 2.96875-7.785156 0-10.753906-2.972656-2.96875-7.785156-2.96875-10.753906 0-9.28125 9.28125-24.382813 9.28125-33.664063 0-2.96875-2.96875-7.785156-2.96875-10.753906 0-2.96875 2.972656-2.96875 7.785156 0 10.753906 7.605469 7.605469 17.597656 11.410156 27.585937 11.410156 9.992188 0 19.980469-3.804687 27.585938-11.410156zm0 0"/><path d="m504.394531 366.273438c4.199219 0 7.605469-3.402344 7.605469-7.601563v-194.839844c0-4.199219-3.40625-7.601562-7.605469-7.601562h-40.546875c-4.199218 0-7.605468 3.402343-7.605468 7.601562s3.40625 7.605469 7.605468 7.605469h32.945313v179.628906h-183.507813v-179.628906h120.144532c4.199218 0 7.601562-3.40625 7.601562-7.605469s-3.402344-7.601562-7.601562-7.601562h-157.433594c-4.199219 0-7.605469 3.402343-7.605469 7.601562v194.839844c0 4.199219 3.40625 7.601563 7.605469 7.601563h50.054687v26.1875h-73.496093v-42.429688c0-25.65625-20.871094-46.53125-46.53125-46.53125h-34.332032v-15.292969c30.578125-12.257812 53.597656-39.484375 59.957032-72.5625 16.417968-2.554687 28.960937-15.695312 28.960937-31.484375 0-15.214844-11.652344-27.972656-27.191406-31.164062v-29.546875c10.011719-7.890625 17.5625-17.664063 22.566406-29.242188 17.414063-40.320312-2.726563-87.636719-3.589844-89.632812-1.03125-2.367188-3.195312-4.054688-5.746093-4.472657-2.550782-.417968-5.136719.484376-6.871094 2.402344-19.605469 21.683594-53.414063 18.21875-89.210938 14.550782-8.863281-.90625-18.03125-1.847657-27.03125-2.394532-26.6875-1.621094-51.074218 12.703125-62.585937 36.160156-9.75-1.253906-19.574219 1.21875-27.746094 7.117188-10.050781 7.253906-15.953125 18.511719-16.1875 30.894531-.484375 25.332031 9.894531 51.519531 16.292969 65.175781-13.570313 4.355469-23.332032 16.222657-23.332032 30.152344 0 15.78125 12.53125 28.914063 28.9375 31.480469 3.644532 19.140625 12.910157 36.75 26.992188 50.832031 9.550781 9.550782 20.726562 16.882813 32.902344 21.753906v15.273438h-11.339844c-.003906 0-.011719 0-.019531 0h-22.976563c-25.660156 0-46.53125 20.871094-46.53125 46.53125v42.429688h-10.335937c-4.199219 0-7.605469 3.402343-7.605469 7.605468v40.726563c0 4.199219 3.40625 7.601562 7.605469 7.601562h27.878906v55.996094c0 4.199219 3.40625 7.605469 7.605469 7.605469 4.199218 0 7.601562-3.40625 7.601562-7.605469v-55.996094h19.773438c4.199218 0 7.601562-3.402343 7.601562-7.601562s-3.402344-7.605469-7.601562-7.605469h-55.257813v-25.519531h481.585938v25.519531h-395.910157c-4.199218 0-7.605468 3.40625-7.605468 7.605469s3.40625 7.601562 7.605468 7.601562h360.425782v55.996094c0 4.199219 3.402344 7.605469 7.601562 7.605469 4.199219 0 7.605469-3.40625 7.605469-7.605469v-55.996094h27.878906c4.199219 0 7.605469-3.402343 7.605469-7.601562v-40.726563c0-4.203125-3.40625-7.605468-7.605469-7.605468h-71.109375v-26.1875zm-220.796875-194.835938h14.480469v179.628906h-14.480469zm-84.148437 193.652344-19.167969 4.792968c-2.65625.664063-4.75 2.707032-5.484375 5.347657-.730469 2.640625.015625 5.46875 1.953125 7.40625l9.824219 9.824219h-18.625l21.011719-73.753907h8.660156zm-103.75 10.140625c-.734375-2.640625-2.828125-4.683594-5.484375-5.347657l-19.167969-4.792968 1.828125-46.382813h8.664062l21.015626 73.753907h-18.632813l9.824219-9.828126c1.9375-1.933593 2.683594-4.765624 1.953125-7.402343zm8.714843-56.523438 18.375 10.355469-17.5 17.5-7.9375-27.855469zm61.671876 0h7.0625l-7.9375 27.855469-17.5-17.5zm-30.835938 19.402344 9.316406 9.3125-9.820312 12.125-9.195313-11.738281zm-20.535156 20.53125 10.730468 13.695313-9.476562 11.707031-5.910156-20.742188zm40.664062-.40625 5.066406 5.066406-5.792968 20.320313-9.75-12.449219zm-19.777344 25.726563 6.660157 8.5h-13.539063zm109.796876-199.800782c0 6.933594-4.964844 12.894532-12.011719 15.429688.019531-.835938.03125-1.671875.03125-2.511719v-28.339844c7.035156 2.539063 11.980469 8.496094 11.980469 15.421875zm-213.179688-95.039062c.148438-7.554688 3.746094-14.425782 9.886719-18.855469 4.148437-2.996094 8.996093-4.542969 13.9375-4.542969 2.386719 0 4.796875.363282 7.160156 1.097656 3.855469 1.199219 7.976563-.824218 9.382813-4.609374 7.710937-20.714844 27.820312-33.730469 50.023437-32.375 8.691406.53125 17.699219 1.453124 26.410156 2.347656 33.648438 3.445312 68.3125 6.996094 93.007813-11.277344 4.488281 14.882812 10.394531 43.273438-.03125 67.335938-7.128906 16.449218-20.988282 28.480468-41.195313 35.761718-57.1875 20.601563-112.183593-10.199218-112.722656-10.507812-2.113281-1.214844-4.679687-1.34375-6.90625-.34375-2.222656.996094-3.832031 3-4.328125 5.386718-.066406.316407-6.417969 29.667969-27.660156 33.308594-5.144532-10.300781-17.441406-37.65625-16.964844-62.726562zm-7.035156 95.039062c0-6.925781 4.949218-12.882812 11.980468-15.421875v28.339844c0 .839844.011719 1.675781.03125 2.511719-7.046874-2.535156-12.011718-8.496094-12.011718-15.429688zm27.1875 12.917969v-30.355469c12.273437-2.246094 22.683594-10.019531 30.398437-22.851562 2.753907-4.582032 4.761719-9.160156 6.167969-12.960938 18.835938 8.597656 66.382812 25.640625 117.015625 7.398438 4.328125-1.558594 8.40625-3.320313 12.253906-5.257813v64.027344c0 45.726563-37.195312 82.925781-82.917969 82.925781-22.148437 0-42.96875-8.625-58.632812-24.285156-15.660156-15.660156-24.285156-36.488281-24.285156-58.640625zm82.917968 98.136719c7.277344 0 14.367188-.804688 21.195313-2.3125v13.761718l-21.234375 11.960938-21.234375-11.960938v-13.753906c6.910156 1.519532 14.03125 2.304688 21.273437 2.304688zm-102.140624 54.816406c0-14.921875 10.488281-27.429688 24.476562-30.5625l-2.019531 51.199219c-.140625 3.597656 2.261719 6.800781 5.753906 7.675781l12.136719 3.035156-11.082032 11.082032h-29.265624zm174.933593 42.429688-11.082031-11.082032 12.136719-3.035156c3.492187-.875 5.894531-4.078125 5.753906-7.675781l-2.023437-51.199219c13.992187 3.132812 24.480468 15.640625 24.480468 30.5625v42.429688zm133.175781-26.1875h5.847657v26.1875h-5.847657zm76.820313 26.1875h-55.761719v-26.1875h55.761719zm0 0"/><path d="m370.570312 320.648438h-37.515624c-4.199219 0-7.601563 3.40625-7.601563 7.605468 0 4.199219 3.402344 7.605469 7.601563 7.605469h37.515624c4.199219 0 7.601563-3.40625 7.601563-7.605469 0-4.199218-3.402344-7.605468-7.601563-7.605468zm0 0"/><path d="m370.570312 296.316406h-37.515624c-4.199219 0-7.601563 3.40625-7.601563 7.605469s3.402344 7.601563 7.601563 7.601563h37.515624c4.199219 0 7.601563-3.402344 7.601563-7.601563s-3.402344-7.605469-7.601563-7.605469zm0 0"/><path d="m370.570312 271.984375h-37.515624c-4.199219 0-7.601563 3.40625-7.601563 7.605469 0 4.199218 3.402344 7.601562 7.601563 7.601562h37.515624c4.199219 0 7.601563-3.402344 7.601563-7.601562 0-4.199219-3.402344-7.605469-7.601563-7.605469zm0 0"/><path d="m477.53125 320.648438h-37.515625c-4.199219 0-7.601563 3.40625-7.601563 7.605468 0 4.199219 3.402344 7.605469 7.601563 7.605469h37.515625c4.199219 0 7.601562-3.40625 7.601562-7.605469 0-4.199218-3.402343-7.605468-7.601562-7.605468zm0 0"/><path d="m477.53125 296.316406h-37.515625c-4.199219 0-7.601563 3.40625-7.601563 7.605469s3.402344 7.601563 7.601563 7.601563h37.515625c4.199219 0 7.601562-3.402344 7.601562-7.601563s-3.402343-7.605469-7.601562-7.605469zm0 0"/><path d="m477.53125 271.984375h-37.515625c-4.199219 0-7.601563 3.40625-7.601563 7.605469 0 4.199218 3.402344 7.601562 7.601563 7.601562h37.515625c4.199219 0 7.601562-3.402344 7.601562-7.601562 0-4.199219-3.402343-7.605469-7.601562-7.605469zm0 0"/><path d="m391.859375 138.15625c34.382813 0 62.355469-27.972656 62.355469-62.355469 0-34.378906-27.972656-62.351562-62.355469-62.351562-34.378906 0-62.351563 27.972656-62.351563 62.351562 0 34.382813 27.972657 62.355469 62.351563 62.355469zm0-109.5c25.996094 0 47.144531 21.152344 47.144531 47.144531 0 25.996094-21.148437 47.144531-47.144531 47.144531s-47.144531-21.148437-47.144531-47.144531c0-25.992187 21.148437-47.144531 47.144531-47.144531zm0 0"/><path d="m372.851562 108.140625c1.175782.679687 2.488282 1.019531 3.800782 1.019531s2.625-.339844 3.800781-1.019531l44.609375-25.753906c2.351562-1.359375 3.804688-3.867188 3.804688-6.585938 0-2.714843-1.453126-5.226562-3.804688-6.582031l-44.609375-25.757812c-2.351563-1.355469-5.25-1.355469-7.601563 0-2.351562 1.359374-3.804687 3.867187-3.804687 6.585937v51.507813c0 2.71875 1.453125 5.230468 3.804687 6.585937zm11.40625-44.921875 21.796876 12.582031-21.796876 12.585938zm0 0"/></svg>